<svg width="1194" height="339" viewBox="0 0 1194 339" fill="none" xmlns="http://www.w3.org/2000/svg">
<path d="M105.573 207.775C102.522 200.563 102.244 193.628 102.244 184.196V154.237C102.244 133.988 97.2511 119.286 81.9943 112.905C95.5867 106.525 101.967 93.4878 101.967 73.5152V58.2585C101.967 28.2997 88.3744 13.5977 56.7513 13.5977H10.7036V207.775H41.2171V128.717H51.7582C65.628 128.717 71.7307 135.375 71.7307 153.405V183.919C71.7307 199.73 72.8403 202.782 74.5046 207.775H105.573ZM55.9191 41.3373C66.7376 41.3373 71.4533 47.44 71.4533 61.3098V80.4501C71.4533 95.9843 64.5184 100.977 53.1451 100.977H41.2171V41.3373H55.9191ZM150.329 58.2585C150.329 44.3887 156.432 39.1181 166.141 39.1181C175.85 39.1181 181.952 44.3887 181.952 58.2585V163.114C181.952 176.984 175.85 182.254 166.141 182.254C156.432 182.254 150.329 176.984 150.329 163.114V58.2585ZM119.816 161.172C119.816 192.241 136.182 209.994 166.141 209.994C196.099 209.994 212.466 192.241 212.466 161.172V60.2002C212.466 29.1319 196.099 11.3786 166.141 11.3786C136.182 11.3786 119.816 29.1319 119.816 60.2002V161.172ZM291.935 135.375V163.114C291.935 176.984 285.833 181.977 276.124 181.977C266.415 181.977 260.312 176.984 260.312 163.114V58.2585C260.312 44.3887 266.415 39.1181 276.124 39.1181C285.833 39.1181 291.935 44.3887 291.935 58.2585V79.0632H320.785V60.2002C320.785 29.1319 305.25 11.3786 275.292 11.3786C245.333 11.3786 229.799 29.1319 229.799 60.2002V161.172C229.799 192.241 245.333 209.994 275.292 209.994C305.25 209.994 320.785 192.241 320.785 161.172V135.375H291.935ZM408.925 207.775H440.271L397.829 100.145L440.271 13.5977H409.757L369.812 98.2035V13.5977H339.299V207.775H369.812V148.135L379.244 130.381L408.925 207.775ZM484.671 41.3373H537.377V13.5977H454.158V207.775H537.377V180.035H484.671V123.169H526.558V95.4295H484.671V41.3373ZM547.408 41.3373H579.309V207.775H609.823V41.3373H641.723V13.5977H547.408V41.3373ZM694.35 60.2002C694.35 115.679 753.99 123.169 753.99 163.114C753.99 176.984 747.888 181.977 738.179 181.977C728.47 181.977 722.367 176.984 722.367 163.114V149.244H693.518V161.172C693.518 192.241 709.052 209.994 739.011 209.994C768.97 209.994 784.504 192.241 784.504 161.172C784.504 105.693 724.864 98.2035 724.864 58.2585C724.864 44.3887 730.412 39.1181 740.121 39.1181C749.829 39.1181 755.377 44.3887 755.377 58.2585V66.3029H784.227V60.2002C784.227 29.1319 768.97 11.3786 739.288 11.3786C709.607 11.3786 694.35 29.1319 694.35 60.2002ZM832.5 124.556H867.174V207.775H898.243V13.5977H867.174V96.8165H832.5V13.5977H801.986V207.775H832.5V124.556ZM920.367 207.775H950.881V13.5977H920.367V207.775ZM1038.38 207.775H1069.73V13.5977H1042.54V129.827L1011.19 13.5977H972.914V207.775H1000.38V67.1351L1038.38 207.775ZM1159.26 13.5977H1114.6L1083.53 207.775H1111.55L1116.82 172.546H1154.26L1159.53 207.775H1190.33L1159.26 13.5977ZM1135.4 47.9948L1150.1 146.193H1120.7L1135.4 47.9948Z" fill="white"/>
<path d="M37.3443 283.614V289.027H18.8903V326.673H13.1695V283.614H37.3443ZM58.6495 283.614C62.6274 283.614 65.9286 284.946 68.5532 287.612C71.2187 290.236 72.5515 293.517 72.5515 297.454C72.5515 301.35 71.2187 304.631 68.5532 307.296C65.9286 309.962 62.6274 311.295 58.6495 311.295H48.7459V326.673H43.0251V283.614H58.6495ZM58.6495 305.943C61.028 305.943 62.9965 305.143 64.5548 303.544C66.1131 301.903 66.8923 299.874 66.8923 297.454C66.8923 294.993 66.1131 292.964 64.5548 291.364C62.9965 289.765 61.028 288.965 58.6495 288.965H48.7459V305.943H58.6495ZM102.053 283.614H107.835L93.9947 316.462C92.4364 320.152 90.4474 322.839 88.0279 324.52C85.6084 326.16 82.6557 326.878 79.17 326.673V321.383C81.5485 321.629 83.4759 321.28 84.9522 320.337C86.4286 319.394 87.6588 317.774 88.643 315.477L89.0736 314.493L74.495 283.614H80.2772L91.7187 308.219L102.053 283.614ZM131.04 304.405C133.254 305.348 134.977 306.722 136.207 308.526C137.437 310.331 138.052 312.463 138.052 314.924C138.052 318.615 136.658 321.629 133.869 323.966C131.122 326.304 127.472 327.473 122.92 327.473C118.778 327.473 115.436 326.55 112.893 324.704C110.392 322.859 108.628 320.481 107.603 317.569L112.463 314.801C113.734 319.64 117.22 322.059 122.92 322.059C125.914 322.059 128.231 321.403 129.871 320.091C131.511 318.738 132.331 316.954 132.331 314.739C132.331 312.525 131.552 310.741 129.994 309.388C128.477 308.034 126.344 307.358 123.597 307.358H118.552V302.129H122.182C124.806 302.129 126.898 301.493 128.456 300.222C130.014 298.91 130.794 297.208 130.794 295.117C130.794 293.066 130.055 291.405 128.579 290.134C127.144 288.822 125.134 288.165 122.551 288.165C117.794 288.165 114.616 290.277 113.016 294.501L108.218 291.733C110.802 285.787 115.579 282.814 122.551 282.814C126.693 282.814 130.035 283.962 132.577 286.259C135.161 288.555 136.453 291.467 136.453 294.993C136.453 299.094 134.648 302.232 131.04 304.405ZM180.647 320.952C176.341 325.299 171.072 327.473 164.838 327.473C158.605 327.473 153.335 325.299 149.029 320.952C144.723 316.605 142.571 311.336 142.571 305.143C142.571 298.91 144.723 293.64 149.029 289.334C153.335 284.987 158.605 282.814 164.838 282.814C171.072 282.814 176.341 284.987 180.647 289.334C184.994 293.64 187.168 298.91 187.168 305.143C187.168 311.336 184.994 316.605 180.647 320.952ZM152.966 317.077C156.165 320.275 160.122 321.875 164.838 321.875C169.554 321.875 173.491 320.275 176.649 317.077C179.848 313.837 181.447 309.859 181.447 305.143C181.447 300.386 179.848 296.408 176.649 293.21C173.491 289.97 169.554 288.35 164.838 288.35C160.122 288.35 156.165 289.97 152.966 293.21C149.809 296.408 148.23 300.386 148.23 305.143C148.23 309.859 149.809 313.837 152.966 317.077ZM218.651 304.344C220.619 305.287 222.177 306.64 223.326 308.403C224.515 310.167 225.109 312.197 225.109 314.493C225.109 317.938 223.9 320.829 221.48 323.167C219.061 325.504 216.108 326.673 212.622 326.673H194.045V283.614H211.269C214.632 283.614 217.482 284.741 219.819 286.997C222.157 289.252 223.326 292.041 223.326 295.363C223.326 299.176 221.767 302.17 218.651 304.344ZM211.269 288.965H199.766V302.129H211.269C213.073 302.129 214.591 301.493 215.821 300.222C217.051 298.951 217.666 297.392 217.666 295.547C217.666 293.743 217.031 292.205 215.759 290.934C214.529 289.621 213.032 288.965 211.269 288.965ZM212.622 321.321C214.55 321.321 216.169 320.645 217.482 319.291C218.794 317.938 219.45 316.277 219.45 314.309C219.45 312.381 218.774 310.741 217.42 309.388C216.108 308.034 214.509 307.358 212.622 307.358H199.766V321.321H212.622ZM231.89 326.673V283.614H237.611V298.992H247.515C251.493 298.992 254.794 300.325 257.418 302.99C260.084 305.656 261.417 308.937 261.417 312.832C261.417 316.769 260.084 320.07 257.418 322.736C254.794 325.361 251.493 326.673 247.515 326.673H231.89ZM265.784 326.673V283.614H271.505V326.673H265.784ZM237.611 321.321H247.515C249.893 321.321 251.862 320.522 253.42 318.922C254.978 317.323 255.757 315.293 255.757 312.832C255.757 310.372 254.978 308.342 253.42 306.743C251.862 305.143 249.893 304.344 247.515 304.344H237.611V321.321ZM286.449 321.26H306.441V326.673H280.729V283.614H306.134V289.027H286.449V302.252H304.596V307.604H286.449V321.26ZM355.484 326.673V294.563L333.339 326.673H328.726V283.614H334.446V315.785L356.591 283.614H361.205V326.673H355.484ZM417.104 326.673H410.092L391.515 306.004V326.673H385.794V283.614H391.515V303.052L409.476 283.614H416.489L397.481 304.528L417.104 326.673ZM437.822 283.614C441.799 283.614 445.101 284.946 447.725 287.612C450.391 290.236 451.724 293.517 451.724 297.454C451.724 301.35 450.391 304.631 447.725 307.296C445.101 309.962 441.799 311.295 437.822 311.295H427.918V326.673H422.197V283.614H437.822ZM437.822 305.943C440.2 305.943 442.169 305.143 443.727 303.544C445.285 301.903 446.064 299.874 446.064 297.454C446.064 294.993 445.285 292.964 443.727 291.364C442.169 289.765 440.2 288.965 437.822 288.965H427.918V305.943H437.822ZM481.225 283.614H487.007L473.167 316.462C471.608 320.152 469.62 322.839 467.2 324.52C464.78 326.16 461.828 326.878 458.342 326.673V321.383C460.721 321.629 462.648 321.28 464.124 320.337C465.601 319.394 466.831 317.774 467.815 315.477L468.246 314.493L453.667 283.614H459.449L470.891 308.219L481.225 283.614ZM523.489 283.614V326.673H517.769V289.027H497.961V326.673H492.241V283.614H523.489ZM559.364 283.614H565.023V326.673H559.364V307.296H538.45V326.673H532.729V283.614H538.45V301.883H559.364V283.614ZM610.039 320.952C605.733 325.299 600.464 327.473 594.23 327.473C587.997 327.473 582.727 325.299 578.421 320.952C574.115 316.605 571.963 311.336 571.963 305.143C571.963 298.91 574.115 293.64 578.421 289.334C582.727 284.987 587.997 282.814 594.23 282.814C600.464 282.814 605.733 284.987 610.039 289.334C614.386 293.64 616.56 298.91 616.56 305.143C616.56 311.336 614.386 316.605 610.039 320.952ZM582.358 317.077C585.557 320.275 589.514 321.875 594.23 321.875C598.946 321.875 602.883 320.275 606.041 317.077C609.24 313.837 610.839 309.859 610.839 305.143C610.839 300.386 609.24 296.408 606.041 293.21C602.883 289.97 598.946 288.35 594.23 288.35C589.514 288.35 585.557 289.97 582.358 293.21C579.201 296.408 577.622 300.386 577.622 305.143C577.622 309.859 579.201 313.837 582.358 317.077ZM647.612 283.614V289.027H629.158V326.673H623.437V283.614H647.612ZM676.725 326.673L673.218 317.015H653.842L650.335 326.673H644.245L660.3 283.614H666.759L682.814 326.673H676.725ZM655.81 311.664H671.25L663.499 290.441L655.81 311.664ZM704.072 300.53C707.804 300.53 710.961 301.801 713.545 304.344C716.129 306.845 717.42 309.921 717.42 313.571C717.42 317.302 716.129 320.419 713.545 322.921C711.002 325.422 707.845 326.673 704.072 326.673H687.894V283.614H713.73V289.027H693.615V300.53H704.072ZM704.072 321.321C706.204 321.321 708.009 320.583 709.485 319.107C711.002 317.63 711.761 315.785 711.761 313.571C711.761 311.397 711.002 309.572 709.485 308.096C708.009 306.62 706.204 305.881 704.072 305.881H693.615V321.321H704.072ZM751.333 326.673L747.827 317.015H728.45L724.944 326.673H718.854L734.909 283.614H741.368L757.423 326.673H751.333ZM730.419 311.664H745.859L738.108 290.441L730.419 311.664ZM778.127 283.614C782.105 283.614 785.406 284.946 788.031 287.612C790.697 290.236 792.029 293.517 792.029 297.454C792.029 301.35 790.697 304.631 788.031 307.296C785.406 309.962 782.105 311.295 778.127 311.295H768.224V326.673H762.503V283.614H778.127ZM778.127 305.943C780.506 305.943 782.474 305.143 784.033 303.544C785.591 301.903 786.37 299.874 786.37 297.454C786.37 294.993 785.591 292.964 784.033 291.364C782.474 289.765 780.506 288.965 778.127 288.965H768.224V305.943H778.127ZM825.544 326.673V294.563L803.4 326.673H798.786V283.614H804.507V315.785L826.652 283.614H831.265V326.673H825.544ZM868.034 283.614V289.027H855.301V326.673H849.641V289.027H836.97V283.614H868.034ZM900.331 283.614H905.99V326.673H900.331V307.296H879.416V326.673H873.696V283.614H879.416V301.883H900.331V283.614ZM915.205 326.673V283.614H920.926V298.992H930.829C934.807 298.992 938.108 300.325 940.733 302.99C943.399 305.656 944.731 308.937 944.731 312.832C944.731 316.769 943.399 320.07 940.733 322.736C938.108 325.361 934.807 326.673 930.829 326.673H915.205ZM949.099 326.673V283.614H954.82V326.673H949.099ZM920.926 321.321H930.829C933.208 321.321 935.176 320.522 936.735 318.922C938.293 317.323 939.072 315.293 939.072 312.832C939.072 310.372 938.293 308.342 936.735 306.743C935.176 305.143 933.208 304.344 930.829 304.344H920.926V321.321ZM969.764 321.26H989.756V326.673H964.043V283.614H989.448V289.027H969.764V302.252H987.91V307.604H969.764V321.26ZM1055.41 283.614H1061.13V326.673H1012.04V283.614H1017.76V321.26H1033.75V283.614H1039.41V321.26H1055.41V283.614ZM1097.13 326.673V294.563L1074.98 326.673H1070.37V283.614H1076.09V315.785L1098.24 283.614H1102.85V326.673H1097.13ZM1138.69 283.614H1144.35V326.673H1138.69V307.296H1117.78V326.673H1112.06V283.614H1117.78V301.883H1138.69V283.614ZM1153.57 326.673V283.614H1159.29V298.992H1169.19C1173.17 298.992 1176.47 300.325 1179.1 302.99C1181.76 305.656 1183.1 308.937 1183.1 312.832C1183.1 316.769 1181.76 320.07 1179.1 322.736C1176.47 325.361 1173.17 326.673 1169.19 326.673H1153.57ZM1187.46 326.673V283.614H1193.18V326.673H1187.46ZM1159.29 321.321H1169.19C1171.57 321.321 1173.54 320.522 1175.1 318.922C1176.66 317.323 1177.44 315.293 1177.44 312.832C1177.44 310.372 1176.66 308.342 1175.1 306.743C1173.54 305.143 1171.57 304.344 1169.19 304.344H1159.29V321.321Z" fill="#8F8F8F"/>
</svg>
