<svg width="125" height="34" viewBox="0 0 125 34" fill="none" xmlns="http://www.w3.org/2000/svg">
<path d="M9.9601 21C9.64246 20.2492 9.61358 19.5273 9.61358 18.5455V15.4268C9.61358 13.3188 9.0938 11.7883 7.50558 11.1242C8.92054 10.46 9.58471 9.10279 9.58471 7.02367V5.43545C9.58471 2.31677 8.16975 0.786301 4.8778 0.786301H0.0842677V21H3.26071V12.7701H4.35802C5.80186 12.7701 6.43714 13.4632 6.43714 15.3402V18.5166C6.43714 20.1626 6.55265 20.4802 6.72591 21H9.9601ZM4.79117 3.67397C5.91736 3.67397 6.40827 4.30926 6.40827 5.7531V7.74559C6.40827 9.36268 5.68635 9.88247 4.5024 9.88247H3.26071V3.67397H4.79117ZM14.6192 5.43545C14.6192 3.99162 15.2545 3.44296 16.2652 3.44296C17.2758 3.44296 17.9111 3.99162 17.9111 5.43545V16.3508C17.9111 17.7947 17.2758 18.3433 16.2652 18.3433C15.2545 18.3433 14.6192 17.7947 14.6192 16.3508V5.43545ZM11.4427 16.1487C11.4427 19.3829 13.1465 21.231 16.2652 21.231C19.3838 21.231 21.0876 19.3829 21.0876 16.1487V5.63759C21.0876 2.4034 19.3838 0.555289 16.2652 0.555289C13.1465 0.555289 11.4427 2.4034 11.4427 5.63759V16.1487ZM29.3603 13.4632V16.3508C29.3603 17.7947 28.725 18.3145 27.7143 18.3145C26.7036 18.3145 26.0683 17.7947 26.0683 16.3508V5.43545C26.0683 3.99162 26.7036 3.44296 27.7143 3.44296C28.725 3.44296 29.3603 3.99162 29.3603 5.43545V7.60121H32.3635V5.63759C32.3635 2.4034 30.7464 0.555289 27.6277 0.555289C24.509 0.555289 22.8919 2.4034 22.8919 5.63759V16.1487C22.8919 19.3829 24.509 21.231 27.6277 21.231C30.7464 21.231 32.3635 19.3829 32.3635 16.1487V13.4632H29.3603ZM41.5388 21H44.8019L40.3837 9.79584L44.8019 0.786301H41.6254L37.4672 9.5937V0.786301H34.2908V21H37.4672V14.7915L38.449 12.9434L41.5388 21ZM49.424 3.67397H54.9105V0.786301H46.2475V21H54.9105V18.1123H49.424V12.1926H53.7843V9.30493H49.424V3.67397ZM55.9548 3.67397H59.2757V21H62.4521V3.67397H65.7729V0.786301H55.9548V3.67397ZM71.2514 5.63759C71.2514 11.4129 77.4599 12.1926 77.4599 16.3508C77.4599 17.7947 76.8246 18.3145 75.8139 18.3145C74.8032 18.3145 74.1679 17.7947 74.1679 16.3508V14.907H71.1647V16.1487C71.1647 19.3829 72.7818 21.231 75.9005 21.231C79.0192 21.231 80.6363 19.3829 80.6363 16.1487C80.6363 10.3734 74.4278 9.5937 74.4278 5.43545C74.4278 3.99162 75.0053 3.44296 76.016 3.44296C77.0267 3.44296 77.6043 3.99162 77.6043 5.43545V6.27288H80.6074V5.63759C80.6074 2.4034 79.0192 0.555289 75.9294 0.555289C72.8396 0.555289 71.2514 2.4034 71.2514 5.63759ZM85.6327 12.337H89.2422V21H92.4764V0.786301H89.2422V9.44932H85.6327V0.786301H82.4562V21H85.6327V12.337ZM94.7796 21H97.956V0.786301H94.7796V21ZM107.065 21H110.328V0.786301H107.498V12.8856L104.235 0.786301H100.25V21H103.108V6.35951L107.065 21ZM119.648 0.786301H114.999L111.764 21H114.681L115.23 17.3327H119.128L119.677 21H122.882L119.648 0.786301ZM117.164 4.36701L118.695 14.5894H115.634L117.164 4.36701Z" fill="white"/>
<path opacity="0.5" d="M2.87464 28.4373V29.004H0.942638V32.9453H0.343718V28.4373H2.87464ZM5.10514 28.4373C5.5216 28.4373 5.86721 28.5768 6.14198 28.8559C6.42105 29.1307 6.56058 29.4742 6.56058 29.8863C6.56058 30.2942 6.42105 30.6376 6.14198 30.9167C5.86721 31.1958 5.5216 31.3353 5.10514 31.3353H4.0683V32.9453H3.46938V28.4373H5.10514ZM5.10514 30.775C5.35416 30.775 5.56024 30.6913 5.72338 30.5239C5.88653 30.3521 5.9681 30.1396 5.9681 29.8863C5.9681 29.6287 5.88653 29.4162 5.72338 29.2488C5.56024 29.0813 5.35416 28.9976 5.10514 28.9976H4.0683V30.775H5.10514ZM9.64917 28.4373H10.2545L8.80553 31.8763C8.64238 32.2627 8.43415 32.5439 8.18085 32.7199C7.92754 32.8916 7.61842 32.9668 7.25349 32.9453V32.3915C7.5025 32.4172 7.70429 32.3807 7.85885 32.282C8.01341 32.1832 8.14221 32.0137 8.24525 31.7732L8.29033 31.6702L6.76405 28.4373H7.36941L8.56725 31.0133L9.64917 28.4373ZM12.6839 30.614C12.9157 30.7128 13.096 30.8566 13.2248 31.0455C13.3536 31.2344 13.418 31.4577 13.418 31.7153C13.418 32.1017 13.2721 32.4172 12.9801 32.662C12.6925 32.9067 12.3103 33.029 11.8338 33.029C11.4002 33.029 11.0503 32.9324 10.7841 32.7392C10.5222 32.546 10.3376 32.297 10.2302 31.9922L10.739 31.7024C10.8721 32.209 11.237 32.4623 11.8338 32.4623C12.1472 32.4623 12.3898 32.3936 12.5615 32.2562C12.7332 32.1146 12.8191 31.9278 12.8191 31.696C12.8191 31.4641 12.7375 31.2774 12.5744 31.1357C12.4155 30.994 12.1923 30.9232 11.9046 30.9232H11.3765V30.3758H11.7565C12.0313 30.3758 12.2502 30.3092 12.4134 30.1761C12.5765 30.0387 12.6581 29.8606 12.6581 29.6416C12.6581 29.4269 12.5808 29.253 12.4263 29.12C12.276 28.9826 12.0656 28.9139 11.7951 28.9139C11.2971 28.9139 10.9644 29.135 10.7969 29.5772L10.2946 29.2874C10.5651 28.6649 11.0653 28.3536 11.7951 28.3536C12.2288 28.3536 12.5787 28.4738 12.8449 28.7142C13.1153 28.9547 13.2506 29.2595 13.2506 29.6287C13.2506 30.058 13.0617 30.3865 12.6839 30.614ZM17.8774 32.3464C17.4266 32.8015 16.8749 33.029 16.2223 33.029C15.5698 33.029 15.0181 32.8015 14.5673 32.3464C14.1165 31.8913 13.8911 31.3396 13.8911 30.6913C13.8911 30.0387 14.1165 29.487 14.5673 29.0362C15.0181 28.5811 15.5698 28.3536 16.2223 28.3536C16.8749 28.3536 17.4266 28.5811 17.8774 29.0362C18.3325 29.487 18.5601 30.0387 18.5601 30.6913C18.5601 31.3396 18.3325 31.8913 17.8774 32.3464ZM14.9794 31.9407C15.3143 32.2756 15.7286 32.443 16.2223 32.443C16.7161 32.443 17.1282 32.2756 17.4588 31.9407C17.7937 31.6015 17.9611 31.185 17.9611 30.6913C17.9611 30.1933 17.7937 29.7768 17.4588 29.442C17.1282 29.1028 16.7161 28.9332 16.2223 28.9332C15.7286 28.9332 15.3143 29.1028 14.9794 29.442C14.6488 29.7768 14.4835 30.1933 14.4835 30.6913C14.4835 31.185 14.6488 31.6015 14.9794 31.9407ZM21.8561 30.6076C22.0622 30.7063 22.2253 30.848 22.3455 31.0326C22.47 31.2172 22.5323 31.4298 22.5323 31.6702C22.5323 32.0308 22.4056 32.3335 22.1523 32.5782C21.899 32.823 21.5899 32.9453 21.225 32.9453H19.2801V28.4373H21.0833C21.4353 28.4373 21.7337 28.5554 21.9784 28.7915C22.2232 29.0276 22.3455 29.3196 22.3455 29.6674C22.3455 30.0666 22.1824 30.38 21.8561 30.6076ZM21.0833 28.9976H19.879V30.3758H21.0833C21.2722 30.3758 21.431 30.3092 21.5598 30.1761C21.6886 30.043 21.753 29.8799 21.753 29.6867C21.753 29.4978 21.6865 29.3368 21.5534 29.2037C21.4246 29.0663 21.2679 28.9976 21.0833 28.9976ZM21.225 32.385C21.4268 32.385 21.5963 32.3142 21.7337 32.1725C21.8711 32.0308 21.9398 31.857 21.9398 31.6509C21.9398 31.4491 21.869 31.2774 21.7273 31.1357C21.5899 30.994 21.4225 30.9232 21.225 30.9232H19.879V32.385H21.225ZM23.2422 32.9453V28.4373H23.8411V30.0473H24.878C25.2944 30.0473 25.64 30.1868 25.9148 30.4659C26.1939 30.745 26.3334 31.0884 26.3334 31.4963C26.3334 31.9085 26.1939 32.2541 25.9148 32.5332C25.64 32.8079 25.2944 32.9453 24.878 32.9453H23.2422ZM26.7906 32.9453V28.4373H27.3896V32.9453H26.7906ZM23.8411 32.385H24.878C25.127 32.385 25.333 32.3013 25.4962 32.1339C25.6593 31.9664 25.7409 31.7539 25.7409 31.4963C25.7409 31.2387 25.6593 31.0262 25.4962 30.8588C25.333 30.6913 25.127 30.6076 24.878 30.6076H23.8411V32.385ZM28.9541 32.3786H31.0471V32.9453H28.3552V28.4373H31.0149V29.004H28.9541V30.3886H30.8539V30.9489H28.9541V32.3786ZM36.1816 32.9453V29.5836L33.8632 32.9453H33.3802V28.4373H33.9791V31.8054L36.2975 28.4373H36.7805V32.9453H36.1816ZM42.6327 32.9453H41.8986L39.9537 30.7815V32.9453H39.3548V28.4373H39.9537V30.4724L41.8342 28.4373H42.5683L40.5784 30.6269L42.6327 32.9453ZM44.8017 28.4373C45.2182 28.4373 45.5638 28.5768 45.8385 28.8559C46.1176 29.1307 46.2571 29.4742 46.2571 29.8863C46.2571 30.2942 46.1176 30.6376 45.8385 30.9167C45.5638 31.1958 45.2182 31.3353 44.8017 31.3353H43.7649V32.9453H43.1659V28.4373H44.8017ZM44.8017 30.775C45.0507 30.775 45.2568 30.6913 45.4199 30.5239C45.5831 30.3521 45.6647 30.1396 45.6647 29.8863C45.6647 29.6287 45.5831 29.4162 45.4199 29.2488C45.2568 29.0813 45.0507 28.9976 44.8017 28.9976H43.7649V30.775H44.8017ZM49.3457 28.4373H49.9511L48.5021 31.8763C48.3389 32.2627 48.1307 32.5439 47.8774 32.7199C47.6241 32.8916 47.315 32.9668 46.95 32.9453V32.3915C47.1991 32.4172 47.4008 32.3807 47.5554 32.282C47.71 32.1832 47.8388 32.0137 47.9418 31.7732L47.9869 31.6702L46.4606 28.4373H47.066L48.2638 31.0133L49.3457 28.4373ZM53.7705 28.4373V32.9453H53.1716V29.004H51.0979V32.9453H50.499V28.4373H53.7705ZM57.5263 28.4373H58.1188V32.9453H57.5263V30.9167H55.3367V32.9453H54.7378V28.4373H55.3367V30.35H57.5263V28.4373ZM62.8316 32.3464C62.3808 32.8015 61.8291 33.029 61.1766 33.029C60.524 33.029 59.9723 32.8015 59.5215 32.3464C59.0707 31.8913 58.8453 31.3396 58.8453 30.6913C58.8453 30.0387 59.0707 29.487 59.5215 29.0362C59.9723 28.5811 60.524 28.3536 61.1766 28.3536C61.8291 28.3536 62.3808 28.5811 62.8316 29.0362C63.2867 29.487 63.5143 30.0387 63.5143 30.6913C63.5143 31.3396 63.2867 31.8913 62.8316 32.3464ZM59.9336 31.9407C60.2685 32.2756 60.6828 32.443 61.1766 32.443C61.6703 32.443 62.0825 32.2756 62.413 31.9407C62.7479 31.6015 62.9154 31.185 62.9154 30.6913C62.9154 30.1933 62.7479 29.7768 62.413 29.442C62.0825 29.1028 61.6703 28.9332 61.1766 28.9332C60.6828 28.9332 60.2685 29.1028 59.9336 29.442C59.6031 29.7768 59.4378 30.1933 59.4378 30.6913C59.4378 31.185 59.6031 31.6015 59.9336 31.9407ZM66.7652 28.4373V29.004H64.8332V32.9453H64.2343V28.4373H66.7652ZM69.8131 32.9453L69.446 31.9342H67.4174L67.0503 32.9453H66.4128L68.0936 28.4373H68.7698L70.4507 32.9453H69.8131ZM67.6235 31.374H69.2399L68.4285 29.1522L67.6235 31.374ZM72.6762 30.2083C73.0669 30.2083 73.3975 30.3414 73.6679 30.6076C73.9384 30.8695 74.0737 31.1915 74.0737 31.5736C74.0737 31.9643 73.9384 32.2906 73.6679 32.5525C73.4018 32.8144 73.0712 32.9453 72.6762 32.9453H70.9825V28.4373H73.6873V29.004H71.5814V30.2083H72.6762ZM72.6762 32.385C72.8994 32.385 73.0883 32.3078 73.2429 32.1532C73.4018 31.9986 73.4812 31.8054 73.4812 31.5736C73.4812 31.346 73.4018 31.155 73.2429 31.0004C73.0883 30.8459 72.8994 30.7686 72.6762 30.7686H71.5814V32.385H72.6762ZM77.6241 32.9453L77.257 31.9342H75.2284L74.8614 32.9453H74.2238L75.9046 28.4373H76.5808L78.2617 32.9453H77.6241ZM75.4345 31.374H77.051L76.2395 29.1522L75.4345 31.374ZM80.4292 28.4373C80.8457 28.4373 81.1913 28.5768 81.4661 28.8559C81.7452 29.1307 81.8847 29.4742 81.8847 29.8863C81.8847 30.2942 81.7452 30.6376 81.4661 30.9167C81.1913 31.1958 80.8457 31.3353 80.4292 31.3353H79.3924V32.9453H78.7935V28.4373H80.4292ZM80.4292 30.775C80.6783 30.775 80.8843 30.6913 81.0475 30.5239C81.2106 30.3521 81.2922 30.1396 81.2922 29.8863C81.2922 29.6287 81.2106 29.4162 81.0475 29.2488C80.8843 29.0813 80.6783 28.9976 80.4292 28.9976H79.3924V30.775H80.4292ZM85.3935 32.9453V29.5836L83.0751 32.9453H82.5921V28.4373H83.191V31.8054L85.5094 28.4373H85.9924V32.9453H85.3935ZM89.8418 28.4373V29.004H88.5087V32.9453H87.9162V29.004H86.5896V28.4373H89.8418ZM93.2231 28.4373H93.8155V32.9453H93.2231V30.9167H91.0335V32.9453H90.4345V28.4373H91.0335V30.35H93.2231V28.4373ZM94.7803 32.9453V28.4373H95.3792V30.0473H96.416C96.8325 30.0473 97.1781 30.1868 97.4529 30.4659C97.7319 30.745 97.8715 31.0884 97.8715 31.4963C97.8715 31.9085 97.7319 32.2541 97.4529 32.5332C97.1781 32.8079 96.8325 32.9453 96.416 32.9453H94.7803ZM98.3287 32.9453V28.4373H98.9276V32.9453H98.3287ZM95.3792 32.385H96.416C96.6651 32.385 96.8711 32.3013 97.0343 32.1339C97.1974 31.9664 97.279 31.7539 97.279 31.4963C97.279 31.2387 97.1974 31.0262 97.0343 30.8588C96.8711 30.6913 96.6651 30.6076 96.416 30.6076H95.3792V32.385ZM100.492 32.3786H102.585V32.9453H99.8933V28.4373H102.553V29.004H100.492V30.3886H102.392V30.9489H100.492V32.3786ZM109.458 28.4373H110.057V32.9453H104.918V28.4373H105.517V32.3786H107.192V28.4373H107.784V32.3786H109.458V28.4373ZM113.826 32.9453V29.5836L111.508 32.9453H111.025V28.4373H111.624V31.8054L113.942 28.4373H114.425V32.9453H113.826ZM118.178 28.4373H118.771V32.9453H118.178V30.9167H115.988V32.9453H115.39V28.4373H115.988V30.35H118.178V28.4373ZM119.735 32.9453V28.4373H120.334V30.0473H121.371C121.787 30.0473 122.133 30.1868 122.408 30.4659C122.687 30.745 122.826 31.0884 122.826 31.4963C122.826 31.9085 122.687 32.2541 122.408 32.5332C122.133 32.8079 121.787 32.9453 121.371 32.9453H119.735ZM123.284 32.9453V28.4373H123.883V32.9453H123.284ZM120.334 32.385H121.371C121.62 32.385 121.826 32.3013 121.989 32.1339C122.152 31.9664 122.234 31.7539 122.234 31.4963C122.234 31.2387 122.152 31.0262 121.989 30.8588C121.826 30.6913 121.62 30.6076 121.371 30.6076H120.334V32.385Z" fill="white"/>
</svg>
