<svg width="1893" height="603" viewBox="0 0 1893 603" fill="none" xmlns="http://www.w3.org/2000/svg">
<path d="M804.573 366.775C801.522 359.563 801.244 352.628 801.244 343.196V313.237C801.244 292.988 796.251 278.286 780.994 271.905C794.587 265.525 800.967 252.488 800.967 232.515V217.258C800.967 187.3 787.374 172.598 755.751 172.598H709.704V366.775H740.217V287.717H750.758C764.628 287.717 770.731 294.375 770.731 312.405V342.919C770.731 358.73 771.84 361.782 773.505 366.775H804.573ZM754.919 200.337C765.738 200.337 770.453 206.44 770.453 220.31V239.45C770.453 254.984 763.518 259.977 752.145 259.977H740.217V200.337H754.919ZM849.329 217.258C849.329 203.389 855.432 198.118 865.141 198.118C874.85 198.118 880.952 203.389 880.952 217.258V322.114C880.952 335.984 874.85 341.254 865.141 341.254C855.432 341.254 849.329 335.984 849.329 322.114V217.258ZM818.816 320.172C818.816 351.241 835.182 368.994 865.141 368.994C895.099 368.994 911.466 351.241 911.466 320.172V219.2C911.466 188.132 895.099 170.379 865.141 170.379C835.182 170.379 818.816 188.132 818.816 219.2V320.172ZM990.935 294.375V322.114C990.935 335.984 984.833 340.977 975.124 340.977C965.415 340.977 959.312 335.984 959.312 322.114V217.258C959.312 203.389 965.415 198.118 975.124 198.118C984.833 198.118 990.935 203.389 990.935 217.258V238.063H1019.78V219.2C1019.78 188.132 1004.25 170.379 974.292 170.379C944.333 170.379 928.799 188.132 928.799 219.2V320.172C928.799 351.241 944.333 368.994 974.292 368.994C1004.25 368.994 1019.78 351.241 1019.78 320.172V294.375H990.935ZM1107.92 366.775H1139.27L1096.83 259.145L1139.27 172.598H1108.76L1068.81 257.203V172.598H1038.3V366.775H1068.81V307.135L1078.24 289.381L1107.92 366.775ZM1183.67 200.337H1236.38V172.598H1153.16V366.775H1236.38V339.035H1183.67V282.169H1225.56V254.43H1183.67V200.337ZM1246.41 200.337H1278.31V366.775H1308.82V200.337H1340.72V172.598H1246.41V200.337ZM1393.35 219.2C1393.35 274.679 1452.99 282.169 1452.99 322.114C1452.99 335.984 1446.89 340.977 1437.18 340.977C1427.47 340.977 1421.37 335.984 1421.37 322.114V308.244H1392.52V320.172C1392.52 351.241 1408.05 368.994 1438.01 368.994C1467.97 368.994 1483.5 351.241 1483.5 320.172C1483.5 264.693 1423.86 257.203 1423.86 217.258C1423.86 203.389 1429.41 198.118 1439.12 198.118C1448.83 198.118 1454.38 203.389 1454.38 217.258V225.303H1483.23V219.2C1483.23 188.132 1467.97 170.379 1438.29 170.379C1408.61 170.379 1393.35 188.132 1393.35 219.2ZM1531.5 283.556H1566.17V366.775H1597.24V172.598H1566.17V255.817H1531.5V172.598H1500.99V366.775H1531.5V283.556ZM1619.37 366.775H1649.88V172.598H1619.37V366.775ZM1737.38 366.775H1768.73V172.598H1741.54V288.827L1710.19 172.598H1671.91V366.775H1699.38V226.135L1737.38 366.775ZM1858.26 172.598H1813.6L1782.53 366.775H1810.55L1815.82 331.546H1853.26L1858.53 366.775H1889.33L1858.26 172.598ZM1834.4 206.995L1849.1 305.193H1819.7L1834.4 206.995Z" fill="black"/>
<path d="M736.344 442.614V448.027H717.89V485.673H712.17V442.614H736.344ZM757.65 442.614C761.627 442.614 764.929 443.946 767.553 446.612C770.219 449.236 771.552 452.517 771.552 456.454C771.552 460.35 770.219 463.631 767.553 466.296C764.929 468.962 761.627 470.295 757.65 470.295H747.746V485.673H742.025V442.614H757.65ZM757.65 464.943C760.028 464.943 761.996 464.143 763.555 462.544C765.113 460.903 765.892 458.874 765.892 456.454C765.892 453.993 765.113 451.964 763.555 450.364C761.996 448.765 760.028 447.965 757.65 447.965H747.746V464.943H757.65ZM801.053 442.614H806.835L792.995 475.462C791.436 479.152 789.447 481.839 787.028 483.52C784.608 485.16 781.656 485.878 778.17 485.673V480.383C780.548 480.629 782.476 480.28 783.952 479.337C785.429 478.394 786.659 476.774 787.643 474.477L788.074 473.493L773.495 442.614H779.277L790.719 467.219L801.053 442.614ZM830.04 463.405C832.254 464.348 833.977 465.722 835.207 467.526C836.437 469.331 837.052 471.463 837.052 473.924C837.052 477.615 835.658 480.629 832.869 482.966C830.122 485.304 826.472 486.473 821.92 486.473C817.778 486.473 814.436 485.55 811.893 483.704C809.392 481.859 807.628 479.481 806.603 476.569L811.463 473.801C812.734 478.64 816.22 481.059 821.92 481.059C824.914 481.059 827.231 480.403 828.871 479.091C830.511 477.738 831.331 475.954 831.331 473.739C831.331 471.525 830.552 469.741 828.994 468.388C827.477 467.034 825.344 466.358 822.597 466.358H817.552V461.129H821.182C823.806 461.129 825.898 460.493 827.456 459.222C829.014 457.91 829.794 456.208 829.794 454.117C829.794 452.066 829.055 450.405 827.579 449.134C826.144 447.822 824.134 447.165 821.551 447.165C816.794 447.165 813.616 449.277 812.016 453.501L807.218 450.733C809.802 444.787 814.579 441.814 821.551 441.814C825.693 441.814 829.035 442.962 831.577 445.259C834.161 447.555 835.453 450.467 835.453 453.993C835.453 458.094 833.648 461.232 830.04 463.405ZM879.647 479.952C875.341 484.299 870.072 486.473 863.838 486.473C857.605 486.473 852.335 484.299 848.029 479.952C843.723 475.605 841.571 470.336 841.571 464.143C841.571 457.91 843.723 452.64 848.029 448.334C852.335 443.987 857.605 441.814 863.838 441.814C870.072 441.814 875.341 443.987 879.647 448.334C883.994 452.64 886.168 457.91 886.168 464.143C886.168 470.336 883.994 475.605 879.647 479.952ZM851.966 476.077C855.165 479.275 859.122 480.875 863.838 480.875C868.554 480.875 872.491 479.275 875.649 476.077C878.848 472.837 880.447 468.859 880.447 464.143C880.447 459.386 878.848 455.408 875.649 452.21C872.491 448.97 868.554 447.35 863.838 447.35C859.122 447.35 855.165 448.97 851.966 452.21C848.809 455.408 847.23 459.386 847.23 464.143C847.23 468.859 848.809 472.837 851.966 476.077ZM917.651 463.344C919.619 464.287 921.177 465.64 922.326 467.403C923.515 469.167 924.109 471.197 924.109 473.493C924.109 476.938 922.9 479.829 920.48 482.167C918.061 484.504 915.108 485.673 911.622 485.673H893.045V442.614H910.269C913.632 442.614 916.482 443.741 918.819 445.997C921.157 448.252 922.326 451.041 922.326 454.363C922.326 458.176 920.767 461.17 917.651 463.344ZM910.269 447.965H898.766V461.129H910.269C912.073 461.129 913.591 460.493 914.821 459.222C916.051 457.951 916.666 456.392 916.666 454.547C916.666 452.743 916.031 451.205 914.759 449.934C913.529 448.621 912.032 447.965 910.269 447.965ZM911.622 480.321C913.55 480.321 915.169 479.645 916.482 478.291C917.794 476.938 918.45 475.277 918.45 473.309C918.45 471.381 917.774 469.741 916.42 468.388C915.108 467.034 913.509 466.358 911.622 466.358H898.766V480.321H911.622ZM930.89 485.673V442.614H936.611V457.992H946.515C950.493 457.992 953.794 459.325 956.418 461.99C959.084 464.656 960.417 467.937 960.417 471.832C960.417 475.769 959.084 479.07 956.418 481.736C953.794 484.361 950.493 485.673 946.515 485.673H930.89ZM964.784 485.673V442.614H970.505V485.673H964.784ZM936.611 480.321H946.515C948.893 480.321 950.862 479.522 952.42 477.922C953.978 476.323 954.757 474.293 954.757 471.832C954.757 469.372 953.978 467.342 952.42 465.743C950.862 464.143 948.893 463.344 946.515 463.344H936.611V480.321ZM985.449 480.26H1005.44V485.673H979.729V442.614H1005.13V448.027H985.449V461.252H1003.6V466.604H985.449V480.26ZM1054.48 485.673V453.563L1032.34 485.673H1027.73V442.614H1033.45V474.785L1055.59 442.614H1060.2V485.673H1054.48ZM1116.1 485.673H1109.09L1090.51 465.004V485.673H1084.79V442.614H1090.51V462.052L1108.48 442.614H1115.49L1096.48 463.528L1116.1 485.673ZM1136.82 442.614C1140.8 442.614 1144.1 443.946 1146.73 446.612C1149.39 449.236 1150.72 452.517 1150.72 456.454C1150.72 460.35 1149.39 463.631 1146.73 466.296C1144.1 468.962 1140.8 470.295 1136.82 470.295H1126.92V485.673H1121.2V442.614H1136.82ZM1136.82 464.943C1139.2 464.943 1141.17 464.143 1142.73 462.544C1144.29 460.903 1145.06 458.874 1145.06 456.454C1145.06 453.993 1144.29 451.964 1142.73 450.364C1141.17 448.765 1139.2 447.965 1136.82 447.965H1126.92V464.943H1136.82ZM1180.23 442.614H1186.01L1172.17 475.462C1170.61 479.152 1168.62 481.839 1166.2 483.52C1163.78 485.16 1160.83 485.878 1157.34 485.673V480.383C1159.72 480.629 1161.65 480.28 1163.12 479.337C1164.6 478.394 1165.83 476.774 1166.82 474.477L1167.25 473.493L1152.67 442.614H1158.45L1169.89 467.219L1180.23 442.614ZM1222.49 442.614V485.673H1216.77V448.027H1196.96V485.673H1191.24V442.614H1222.49ZM1258.36 442.614H1264.02V485.673H1258.36V466.296H1237.45V485.673H1231.73V442.614H1237.45V460.883H1258.36V442.614ZM1309.04 479.952C1304.73 484.299 1299.46 486.473 1293.23 486.473C1287 486.473 1281.73 484.299 1277.42 479.952C1273.12 475.605 1270.96 470.336 1270.96 464.143C1270.96 457.91 1273.12 452.64 1277.42 448.334C1281.73 443.987 1287 441.814 1293.23 441.814C1299.46 441.814 1304.73 443.987 1309.04 448.334C1313.39 452.64 1315.56 457.91 1315.56 464.143C1315.56 470.336 1313.39 475.605 1309.04 479.952ZM1281.36 476.077C1284.56 479.275 1288.51 480.875 1293.23 480.875C1297.95 480.875 1301.88 479.275 1305.04 476.077C1308.24 472.837 1309.84 468.859 1309.84 464.143C1309.84 459.386 1308.24 455.408 1305.04 452.21C1301.88 448.97 1297.95 447.35 1293.23 447.35C1288.51 447.35 1284.56 448.97 1281.36 452.21C1278.2 455.408 1276.62 459.386 1276.62 464.143C1276.62 468.859 1278.2 472.837 1281.36 476.077ZM1346.61 442.614V448.027H1328.16V485.673H1322.44V442.614H1346.61ZM1375.72 485.673L1372.22 476.015H1352.84L1349.34 485.673H1343.25L1359.3 442.614H1365.76L1381.81 485.673H1375.72ZM1354.81 470.664H1370.25L1362.5 449.441L1354.81 470.664ZM1403.07 459.53C1406.8 459.53 1409.96 460.801 1412.55 463.344C1415.13 465.845 1416.42 468.921 1416.42 472.571C1416.42 476.302 1415.13 479.419 1412.55 481.921C1410 484.422 1406.84 485.673 1403.07 485.673H1386.89V442.614H1412.73V448.027H1392.61V459.53H1403.07ZM1403.07 480.321C1405.2 480.321 1407.01 479.583 1408.49 478.107C1410 476.63 1410.76 474.785 1410.76 472.571C1410.76 470.397 1410 468.572 1408.49 467.096C1407.01 465.62 1405.2 464.881 1403.07 464.881H1392.61V480.321H1403.07ZM1450.33 485.673L1446.83 476.015H1427.45L1423.94 485.673H1417.85L1433.91 442.614H1440.37L1456.42 485.673H1450.33ZM1429.42 470.664H1444.86L1437.11 449.441L1429.42 470.664ZM1477.13 442.614C1481.11 442.614 1484.41 443.946 1487.03 446.612C1489.7 449.236 1491.03 452.517 1491.03 456.454C1491.03 460.35 1489.7 463.631 1487.03 466.296C1484.41 468.962 1481.11 470.295 1477.13 470.295H1467.22V485.673H1461.5V442.614H1477.13ZM1477.13 464.943C1479.51 464.943 1481.47 464.143 1483.03 462.544C1484.59 460.903 1485.37 458.874 1485.37 456.454C1485.37 453.993 1484.59 451.964 1483.03 450.364C1481.47 448.765 1479.51 447.965 1477.13 447.965H1467.22V464.943H1477.13ZM1524.54 485.673V453.563L1502.4 485.673H1497.79V442.614H1503.51V474.785L1525.65 442.614H1530.27V485.673H1524.54ZM1567.03 442.614V448.027H1554.3V485.673H1548.64V448.027H1535.97V442.614H1567.03ZM1599.33 442.614H1604.99V485.673H1599.33V466.296H1578.42V485.673H1572.7V442.614H1578.42V460.883H1599.33V442.614ZM1614.2 485.673V442.614H1619.93V457.992H1629.83C1633.81 457.992 1637.11 459.325 1639.73 461.99C1642.4 464.656 1643.73 467.937 1643.73 471.832C1643.73 475.769 1642.4 479.07 1639.73 481.736C1637.11 484.361 1633.81 485.673 1629.83 485.673H1614.2ZM1648.1 485.673V442.614H1653.82V485.673H1648.1ZM1619.93 480.321H1629.83C1632.21 480.321 1634.18 479.522 1635.73 477.922C1637.29 476.323 1638.07 474.293 1638.07 471.832C1638.07 469.372 1637.29 467.342 1635.73 465.743C1634.18 464.143 1632.21 463.344 1629.83 463.344H1619.93V480.321ZM1668.76 480.26H1688.76V485.673H1663.04V442.614H1688.45V448.027H1668.76V461.252H1686.91V466.604H1668.76V480.26ZM1754.41 442.614H1760.13V485.673H1711.04V442.614H1716.76V480.26H1732.75V442.614H1738.41V480.26H1754.41V442.614ZM1796.13 485.673V453.563L1773.98 485.673H1769.37V442.614H1775.09V474.785L1797.24 442.614H1801.85V485.673H1796.13ZM1837.69 442.614H1843.35V485.673H1837.69V466.296H1816.78V485.673H1811.06V442.614H1816.78V460.883H1837.69V442.614ZM1852.57 485.673V442.614H1858.29V457.992H1868.19C1872.17 457.992 1875.47 459.325 1878.1 461.99C1880.76 464.656 1882.1 467.937 1882.1 471.832C1882.1 475.769 1880.76 479.07 1878.1 481.736C1875.47 484.361 1872.17 485.673 1868.19 485.673H1852.57ZM1886.46 485.673V442.614H1892.18V485.673H1886.46ZM1858.29 480.321H1868.19C1870.57 480.321 1872.54 479.522 1874.1 477.922C1875.66 476.323 1876.44 474.293 1876.44 471.832C1876.44 469.372 1875.66 467.342 1874.1 465.743C1872.54 464.143 1870.57 463.344 1868.19 463.344H1858.29V480.321Z" fill="#9C9C9C"/>
<path d="M190.722 131.743C189.905 131.031 189.39 130.612 187.741 127.809L184.555 122.411C182.674 119.224 180.894 118.68 178.437 120.127L176.572 121.229L184.831 135.213L179.426 138.396L159.139 104.041L167.297 99.2366C172.898 95.9354 176.844 97.1153 179.973 102.419L181.566 105.116C183.654 108.652 183.884 111.622 182.145 114.167C185.516 113.705 187.934 115.781 190.054 119.364L193.183 124.662C194.167 126.33 194.942 127.528 196.233 128.486L190.722 131.743ZM167.436 105.767L173.669 116.316L175.782 115.069C177.795 113.879 178.506 112.277 176.882 109.528L174.882 106.14C173.433 103.686 171.959 103.099 170.04 104.226L167.436 105.767Z" fill="black"/>
<path d="M188.745 98.3972C186.197 92.5448 187.822 87.8605 193.474 85.4041C199.125 82.9476 203.669 84.9526 206.217 90.799L214.505 109.816C217.053 115.669 215.427 120.353 209.776 122.809C204.124 125.266 199.581 123.261 197.033 117.414L188.745 98.3972ZM202.945 115.282C204.085 117.893 205.665 118.388 207.496 117.592C209.326 116.797 210.046 115.303 208.906 112.691L200.299 92.9441C199.159 90.3325 197.579 89.8378 195.748 90.6333C193.918 91.4288 193.198 92.9227 194.339 95.5342L202.945 115.282Z" fill="black"/>
<path d="M237.439 97.0126L238.959 102.087C240.793 108.203 238.782 112.609 232.879 114.375C226.976 116.142 222.869 113.562 221.035 107.452L215.075 87.585C213.241 81.4688 215.252 77.063 221.155 75.2962C227.058 73.5295 231.165 76.1093 232.998 82.2195L234.112 85.9297L228.43 87.6309L227.205 83.5395C226.386 80.812 224.873 80.1356 222.959 80.7052C221.045 81.2748 220.155 82.6768 220.974 85.4044L227.163 106.04C227.982 108.767 229.481 109.39 231.389 108.821C233.303 108.251 234.207 106.909 233.394 104.175L231.757 98.7138L237.439 97.0126Z" fill="black"/>
<path d="M253.227 92.7561L251.883 96.6594L253.806 108.761L247.607 109.743L241.353 70.3481L247.552 69.366L250.279 86.5296L255.665 68.0783L261.864 67.0962L256.033 86.0206L268.118 106.491L261.752 107.502L253.227 92.7561Z" fill="black"/>
<path d="M278.299 82.563L286.902 82.1091L287.206 87.8013L278.603 88.2552L279.217 99.9215L290.04 99.3525L290.343 105.045L273.252 105.95L271.144 66.1154L288.236 65.2105L288.533 70.9029L277.711 71.472L278.299 82.563Z" fill="black"/>
<path d="M297.113 65.1878L316.478 66.3322L316.139 72.0224L309.588 71.6334L307.559 105.763L301.297 105.39L303.325 71.2611L296.774 70.872L297.113 65.1878Z" fill="black"/>
<path d="M348.114 71.3054C354.059 72.6935 356.28 76.9582 354.83 83.168L354.542 84.3871L348.766 83.0368L349.141 81.4255C349.792 78.6494 348.925 77.339 346.979 76.8834C345.034 76.4278 343.678 77.2235 343.026 79.9996C341.158 87.9898 352.75 92.2734 350.155 103.372C348.7 109.588 344.757 112.409 338.757 111.011C332.758 109.612 330.477 105.331 331.932 99.1208L332.492 96.737L338.268 98.0873L337.616 100.863C336.964 103.64 337.957 104.923 339.897 105.373C341.842 105.828 343.296 105.114 343.948 102.338C345.816 94.3478 334.224 90.0642 336.819 78.966C338.287 72.7557 342.169 69.9173 348.114 71.3054Z" fill="black"/>
<path d="M359.486 116.507L353.593 114.35L367.349 76.9048L373.242 79.0622L367.345 95.1083L374.038 97.5638L379.934 81.5177L385.93 83.7145L372.174 121.159L366.179 118.963L372.075 102.916L365.382 100.461L359.486 116.507Z" fill="black"/>
<path d="M395.883 88.2729L401.537 90.9942L384.205 126.926L378.551 124.205L395.883 88.2729Z" fill="black"/>
<path d="M410.35 108.211L395.328 132.901L390.504 129.973L411.239 95.8829L417.966 99.9634L411.06 123.714L423.474 103.306L428.249 106.206L407.514 140.296L402.007 136.953L410.35 108.211Z" fill="black"/>
<path d="M428.918 156.785L423.961 152.852L427.618 146.51L421.588 141.728L416.234 146.721L411.724 143.143L441.567 115.876L448.761 121.583L428.918 156.785ZM425.585 137.98L430.322 141.739L440.515 124.062L425.585 137.98Z" fill="black"/>
<path d="M469.194 154.344L475.283 147.022L478.677 150.874L470.628 155.97L479.457 159.524L476.869 163.92L469.488 157.954L468.881 167.365L463.898 166.277L467.336 157.414L458.094 159.689L457.649 154.613L467.071 155.218L462.089 147.146L466.785 145.146L469.194 154.344Z" fill="black"/>
<path d="M470.69 208.209C471.39 207.387 471.81 206.867 474.597 205.19L479.971 201.954C483.149 200.039 483.67 198.262 482.197 195.821L481.076 193.965L467.15 202.351L463.911 196.984L498.113 176.388L503 184.486C506.358 190.048 505.213 194.001 499.933 197.18L497.247 198.801C493.731 200.922 490.752 201.182 488.187 199.464C488.685 202.823 486.625 205.263 483.056 207.409L477.777 210.588C476.114 211.59 474.926 212.375 473.979 213.677L470.69 208.209ZM496.469 184.696L485.964 191.023L487.23 193.122C488.439 195.12 490.054 195.812 492.788 194.166L496.162 192.138C498.606 190.667 499.176 189.189 498.029 187.286L496.469 184.696Z" fill="black"/>
<path d="M504.043 205.897C509.877 203.292 514.583 204.873 517.096 210.493C519.608 216.112 517.649 220.667 511.815 223.272L492.864 231.74C487.03 234.345 482.323 232.765 479.811 227.145C477.298 221.526 479.257 216.971 485.091 214.366L504.043 205.897ZM487.28 220.252C484.678 221.414 484.201 222.998 485.015 224.82C485.829 226.642 487.33 227.342 489.938 226.179L509.627 217.392C512.229 216.229 512.706 214.646 511.892 212.824C511.078 211.002 509.577 210.302 506.974 211.464L487.28 220.252Z" fill="black"/>
<path d="M505.907 254.527L500.84 256.099C494.736 257.991 490.302 256.025 488.48 250.143C486.658 244.266 489.198 240.135 495.296 238.244L515.128 232.099C521.232 230.207 525.666 232.173 527.488 238.055C529.317 243.932 526.77 248.063 520.672 249.954L516.964 251.102L515.208 245.44L519.297 244.175C522.021 243.333 522.686 241.811 522.092 239.905C521.498 238 520.095 237.123 517.371 237.971L496.775 244.351C494.051 245.192 493.44 246.696 494.034 248.601C494.628 250.506 495.977 251.396 498.702 250.555L504.15 248.865L505.907 254.527Z" fill="black"/>
<path d="M510.209 269.816L506.257 268.6L494.21 270.91L493.024 264.753L532.242 257.232L533.428 263.389L516.342 266.67L534.98 271.45L536.167 277.606L517.043 272.4L496.955 285.133L495.74 278.809L510.209 269.816Z" fill="black"/>
<path d="M520.757 295.173L521.295 303.763L515.604 304.121L515.066 295.53L503.394 296.258L504.071 307.065L498.38 307.423L497.313 290.362L537.173 287.871L538.24 304.932L532.548 305.289L531.871 294.482L520.757 295.173Z" fill="black"/>
<path d="M538.334 313.809L537.374 333.158L531.678 332.874L532.002 326.326L497.817 324.638L498.13 318.379L532.321 320.066L532.645 313.519L538.334 313.809Z" fill="black"/>
<path d="M532.706 364.803C531.377 370.752 527.126 373.018 520.892 371.625L519.666 371.349L520.958 365.563L522.571 365.925C525.355 366.546 526.661 365.668 527.099 363.725C527.537 361.776 526.723 360.428 523.944 359.807C515.929 358.021 511.748 369.638 500.616 367.155C494.382 365.762 491.516 361.856 492.856 355.847C494.202 349.837 498.458 347.524 504.697 348.91L507.089 349.445L505.798 355.231L503.013 354.61C500.228 353.989 498.956 354.987 498.518 356.936C498.08 358.885 498.812 360.33 501.597 360.951C509.613 362.738 513.793 351.12 524.931 353.603C531.159 355.002 534.036 358.854 532.706 364.803Z" fill="black"/>
<path d="M487.563 376.599L489.669 370.697L527.293 384.071L525.187 389.973L509.066 384.242L506.674 390.956L522.795 396.687L520.65 402.698L483.026 389.324L485.171 383.313L501.292 389.044L503.684 382.336L487.563 376.599Z" fill="black"/>
<path d="M516.188 412.666L513.518 418.337L477.379 401.374L480.049 395.704L516.188 412.666Z" fill="black"/>
<path d="M496.369 427.319L471.506 412.559L474.389 407.712L508.721 428.086L504.696 434.845L480.851 428.185L501.397 440.381L498.543 445.18L464.212 424.806L467.504 419.271L496.369 427.319Z" fill="black"/>
<path d="M447.916 446.337L451.804 441.344L458.189 444.936L462.921 438.866L457.87 433.568L461.409 429.028L488.989 458.563L483.348 465.801L447.916 446.337ZM466.702 442.822L462.988 447.588L480.777 457.597L466.702 442.822Z" fill="black"/>
<path d="M450.736 486.543L458.123 492.552L454.298 495.977L449.12 487.988L445.645 496.84L441.221 494.298L447.122 486.873L437.696 486.364L438.737 481.376L447.645 484.724L445.277 475.52L450.353 475.027L449.842 484.442L457.874 479.388L459.924 484.059L450.736 486.543Z" fill="black"/>
<path d="M396.832 488.562C397.66 489.255 398.187 489.668 399.889 492.433L403.182 497.769C405.128 500.925 406.913 501.427 409.344 499.932L411.19 498.794L402.659 484.973L408.002 481.684L428.957 515.638L420.893 520.602C415.355 524.01 411.393 522.908 408.158 517.667L406.511 515.002C404.358 511.51 404.068 508.541 405.758 505.961C402.401 506.488 399.936 504.456 397.751 500.916L394.516 495.681C393.496 494.032 392.703 492.852 391.389 491.919L396.832 488.562ZM420.623 514.075L414.188 503.645L412.1 504.933C410.112 506.159 409.431 507.778 411.109 510.496L413.174 513.84C414.67 516.263 416.156 516.826 418.049 515.657L420.623 514.075Z" fill="black"/>
<path d="M399.479 521.849C402.147 527.65 400.606 532.368 395.011 534.932C389.41 537.501 384.828 535.587 382.166 529.785L373.504 510.933C370.837 505.132 372.378 500.413 377.972 497.85C383.573 495.281 388.156 497.195 390.817 502.997L399.479 521.849ZM384.944 505.255C383.757 502.662 382.159 502.204 380.348 503.035C378.531 503.866 377.847 505.371 379.035 507.964L388.027 527.539C389.215 530.126 390.812 530.59 392.624 529.759C394.441 528.928 395.125 527.423 393.937 524.831L384.944 505.255Z" fill="black"/>
<path d="M350.803 524.193L349.182 519.146C347.229 513.068 349.155 508.623 355.025 506.743C360.889 504.863 365.048 507.358 367.001 513.435L373.343 533.184C375.296 539.262 373.37 543.707 367.5 545.587C361.636 547.467 357.477 544.972 355.524 538.895L354.339 535.205L359.989 533.396L361.297 537.468C362.17 540.182 363.693 540.828 365.594 540.217C367.495 539.605 368.361 538.192 367.489 535.478L360.9 514.966C360.028 512.252 358.517 511.66 356.616 512.271C354.715 512.882 353.836 514.242 354.702 516.95L356.447 522.379L350.803 524.193Z" fill="black"/>
<path d="M335.256 528.708L336.473 524.759L334.161 512.727L340.325 511.548L347.853 550.72L341.689 551.905L338.406 534.839L333.618 553.455L327.455 554.641L332.668 535.54L319.921 515.475L326.252 514.262L335.256 528.708Z" fill="black"/>
<path d="M310.245 539.421L301.652 540.043L301.241 534.359L309.833 533.738L308.991 522.089L298.18 522.868L297.768 517.184L314.839 515.95L317.715 555.735L300.644 556.969L300.232 551.286L311.043 550.507L310.245 539.421Z" fill="black"/>
<path d="M291.77 557.154L272.391 556.388L272.616 550.694L279.169 550.951L280.525 516.791L286.796 517.037L285.441 551.198L291.995 551.455L291.77 557.154Z" fill="black"/>
<path d="M240.662 552.041C234.69 550.773 232.386 546.553 233.715 540.31L233.979 539.086L239.782 540.321L239.438 541.938C238.84 544.724 239.732 546.022 241.688 546.436C243.639 546.849 244.982 546.03 245.579 543.243C247.29 535.221 235.614 531.161 237.992 520.014C239.32 513.772 243.207 510.873 249.233 512.151C255.26 513.435 257.624 517.666 256.289 523.909L255.778 526.304L249.975 525.068L250.566 522.282C251.158 519.495 250.147 518.23 248.197 517.817C246.246 517.403 244.805 518.141 244.207 520.928C242.497 528.956 254.173 533.01 251.795 544.156C250.46 550.393 246.634 553.308 240.662 552.041Z" fill="black"/>
<path d="M228.407 507.071L234.339 509.114L221.316 546.822L215.385 544.78L220.966 528.622L214.222 526.299L208.641 542.458L202.601 540.376L215.623 502.667L221.664 504.749L216.083 520.907L222.826 523.229L228.407 507.071Z" fill="black"/>
<path d="M192.574 536.005L186.869 533.393L203.501 497.125L209.207 499.737L192.574 536.005Z" fill="black"/>
<path d="M177.729 516.359L192.264 491.38L197.146 494.217L177.075 528.699L170.267 524.746L176.707 500.869L164.696 521.513L159.863 518.705L179.934 484.217L185.504 487.451L177.729 516.359Z" fill="black"/>
<path d="M158.203 468.138L163.236 471.973L159.701 478.385L165.824 483.05L171.08 477.952L175.66 481.444L146.353 509.279L139.055 503.713L158.203 468.138ZM161.901 486.868L157.094 483.201L147.242 501.068L161.901 486.868Z" fill="black"/>
<path d="M117.983 471.352L112.034 478.79L108.57 475.006L116.519 469.757L107.623 466.378L110.125 461.93L117.617 467.75L118.037 458.331L123.042 459.323L119.774 468.254L128.969 465.799L129.51 470.868L120.081 470.448L125.216 478.42L120.559 480.51L117.983 471.352Z" fill="black"/>
<path d="M115.443 417.537C114.755 418.37 114.348 418.902 111.598 420.633L106.286 423.975C103.146 425.949 102.662 427.737 104.181 430.147L105.338 431.978L119.095 423.32L122.441 428.625L88.6515 449.882L83.6049 441.878C80.1405 436.384 81.207 432.41 86.4236 429.13L89.0792 427.462C92.5569 425.276 95.5224 424.956 98.1227 426.62C97.5588 423.268 99.5697 420.794 103.095 418.576L108.305 415.297C109.95 414.266 111.125 413.457 112.041 412.138L115.443 417.537ZM90.1322 441.548L100.512 435.02L99.2051 432.947C97.9605 430.968 96.3283 430.312 93.6254 432.011L90.2956 434.104C87.8825 435.622 87.3368 437.111 88.5249 438.99L90.1322 441.548Z" fill="black"/>
<path d="M82.1362 420.495C76.353 423.213 71.6185 421.723 68.9934 416.16C66.368 410.592 68.2421 405.998 74.0192 403.28L92.8056 394.449C98.5888 391.731 103.323 393.222 105.948 398.784C108.574 404.353 106.7 408.947 100.923 411.665L82.1362 420.495ZM98.6147 405.818C101.197 404.602 101.644 403.007 100.789 401.204C99.9388 399.402 98.4263 398.725 95.8435 399.941L76.3328 409.114C73.75 410.33 73.3031 411.925 74.1589 413.728C75.0087 415.531 76.5272 416.207 79.104 414.991L98.6147 405.818Z" fill="black"/>
<path d="M79.3246 371.925L84.359 370.258C90.424 368.247 94.8919 370.128 96.8333 375.971C98.7747 381.815 96.3136 385.992 90.2484 387.997L70.5397 394.523C64.4747 396.533 60.0068 394.652 58.0654 388.809C56.1241 382.965 58.5852 378.788 64.6504 376.784L68.3323 375.564L70.2021 381.187L66.1388 382.53C63.4339 383.426 62.7993 384.959 63.423 386.852C64.0527 388.744 65.4735 389.597 68.1843 388.695L88.6555 381.917C91.3604 381.021 91.9414 379.507 91.3117 377.615C90.682 375.722 89.3149 374.856 86.604 375.752L81.1884 377.548L79.3246 371.925Z" fill="black"/>
<path d="M74.6631 356.459L78.627 357.639L90.6525 355.21L91.8925 361.353L52.7496 369.256L51.5096 363.113L68.5678 359.671L49.8861 355.071L48.6461 348.929L67.819 353.954L87.7891 341.031L89.0633 347.342L74.6631 356.459Z" fill="black"/>
<path d="M63.694 331.557L62.9882 322.983L68.6772 322.517L69.383 331.092L81.0367 330.136L80.1497 319.346L85.8387 318.881L87.2354 335.916L47.4365 339.179L46.0398 322.144L51.7228 321.679L52.6098 332.469L63.694 331.557Z" fill="black"/>
<path d="M45.7533 313.278L46.335 293.914L52.0398 294.084L51.8423 300.635L86.0591 301.656L85.8726 307.924L51.6558 306.903L51.4582 313.454L45.7533 313.278Z" fill="black"/>
<path d="M50.3876 262.182C51.6025 256.206 55.8032 253.864 62.0639 255.13L63.2955 255.381L62.1184 261.188L60.4945 260.863C57.6992 260.296 56.4121 261.198 56.0101 263.152C55.6142 265.106 56.4463 266.441 59.2416 267.008C67.2894 268.638 71.2395 256.942 82.4206 259.208C88.6813 260.474 91.6245 264.331 90.3988 270.361C89.1732 276.391 84.962 278.794 78.6953 277.528L76.2925 277.041L77.4696 271.234L80.2649 271.801C83.0602 272.367 84.3141 271.34 84.7161 269.386C85.112 267.433 84.3555 265.999 81.5602 265.433C73.5125 263.803 69.5624 275.499 58.3813 273.233C52.1323 271.954 49.1786 268.158 50.3876 262.182Z" fill="black"/>
<path d="M95.292 249.486L93.3014 255.433L55.4258 242.792L57.4164 236.844L73.6496 242.261L75.9084 235.503L59.6751 230.086L61.699 224.03L99.5747 236.672L97.5506 242.722L81.3174 237.306L79.0586 244.064L95.292 249.486Z" fill="black"/>
<path d="M65.9726 213.988L68.5334 208.267L104.997 224.52L102.442 230.241L65.9726 213.988Z" fill="black"/>
<path d="M85.506 198.965L110.652 213.243L107.86 218.149L73.1426 198.438L77.0334 191.604L100.999 197.806L80.222 186.005L82.9845 181.148L117.702 200.858L114.513 206.457L85.506 198.965Z" fill="black"/>
<path d="M133.588 179.008L129.797 184.07L123.343 180.601L118.733 186.763L123.884 191.963L120.431 196.573L92.2821 167.574L97.7819 160.225L133.588 179.008ZM114.864 182.881L118.486 178.046L100.502 168.383L114.864 182.881Z" fill="black"/>
<path d="M129.983 138.863L122.478 132.996L126.236 129.501L131.568 137.384L134.866 128.47L139.342 130.927L133.589 138.467L143.022 138.797L142.077 143.806L133.108 140.633L135.654 149.792L130.587 150.38L130.918 140.958L122.986 146.165L120.846 141.532L129.983 138.863Z" fill="black"/>
<g clip-path="url(#clip0)">
<path d="M401.326 196.028C356.818 195.23 306.06 218.496 273.931 254.586C243.227 255.166 213.33 267.753 191.319 289.765C190.036 291.028 189.58 292.919 190.141 294.629C190.711 296.348 192.193 297.593 193.979 297.849L230.592 303.093L226.07 308.157C224.388 310.038 224.474 312.897 226.26 314.683L287.316 375.74C288.238 376.661 289.454 377.127 290.679 377.127C291.81 377.127 292.94 376.728 293.843 375.92L298.906 371.398L304.15 408.011C304.407 409.797 305.813 411.108 307.513 411.678C307.95 411.821 308.406 411.887 308.872 411.887C310.221 411.887 311.598 411.298 312.548 410.358C334.256 388.65 346.843 358.754 347.423 328.05C383.551 295.854 407.007 245.115 405.971 200.664C405.905 198.137 403.862 196.095 401.326 196.028V196.028ZM357.55 278.032C352.923 282.659 346.843 284.977 340.754 284.977C334.664 284.977 328.584 282.659 323.958 278.032C314.705 268.77 314.705 253.703 323.958 244.44C333.22 235.178 348.287 235.178 357.55 244.44C366.812 253.703 366.812 268.779 357.55 278.032Z" fill="black"/>
<path d="M203.878 356.597C193.713 366.762 179.757 412.685 178.199 417.882C177.696 419.554 178.161 421.368 179.387 422.603C180.299 423.515 181.505 424 182.75 424C183.206 424 183.662 423.933 184.118 423.8C189.314 422.242 235.237 408.287 245.402 398.122C256.85 386.674 256.85 368.045 245.402 356.597C233.945 345.15 215.326 345.159 203.878 356.597V356.597Z" fill="black"/>
</g>
<defs>
<clipPath id="clip0">
<rect width="228" height="228" fill="white" transform="translate(178 196)"/>
</clipPath>
</defs>
</svg>
