<svg viewBox="0 0 13 13" fill="none" xmlns="http://www.w3.org/2000/svg">
<path d="M5.96094 0.789062C6.125 0.643229 6.27995 0.643229 6.42578 0.789062L12.1406 6.53125C12.3047 6.67708 12.3047 6.82292 12.1406 6.96875L6.42578 12.7109C6.27995 12.8568 6.125 12.8568 5.96094 12.7109L5.41406 12.1641C5.35938 12.1094 5.33203 12.0365 5.33203 11.9453C5.33203 11.8542 5.35938 11.7721 5.41406 11.6992L9.65234 7.46094H0.328125C0.109375 7.46094 0 7.35156 0 7.13281V6.36719C0 6.14844 0.109375 6.03906 0.328125 6.03906H9.65234L5.41406 1.80078C5.26823 1.63672 5.26823 1.48177 5.41406 1.33594L5.96094 0.789062Z" fill="#2C2C2C"/>
</svg>
