<svg viewBox="0 0 28 29" fill="none" xmlns="http://www.w3.org/2000/svg">
<path d="M24.1701 0.774508C25.1031 0.774508 25.9105 1.11542 26.5924 1.79726C27.2742 2.47909 27.6151 3.28653 27.6151 4.21956V19.7223C27.6151 20.6553 27.2742 21.4628 26.5924 22.1446C25.9105 22.8264 25.1031 23.1674 24.1701 23.1674H16.4187L9.69008 28.2273C9.47476 28.3708 9.2415 28.3708 8.9903 28.2273C8.77498 28.1196 8.66733 27.9402 8.66733 27.689V23.1674H3.49974C2.56671 23.1674 1.75927 22.8264 1.07744 22.1446C0.395604 21.4628 0.0546875 20.6553 0.0546875 19.7223V4.21956C0.0546875 3.28653 0.395604 2.47909 1.07744 1.79726C1.75927 1.11542 2.56671 0.774508 3.49974 0.774508H24.1701ZM5.70673 13.209C6.06559 13.532 6.47828 13.6935 6.9448 13.6935C7.41132 13.6935 7.80606 13.532 8.12904 13.209C8.4879 12.8501 8.66733 12.4375 8.66733 11.9709C8.66733 11.5044 8.4879 11.1097 8.12904 10.7867C7.80606 10.4278 7.41132 10.2484 6.9448 10.2484C6.47828 10.2484 6.06559 10.4278 5.70673 10.7867C5.38376 11.1097 5.22227 11.5044 5.22227 11.9709C5.22227 12.4375 5.38376 12.8501 5.70673 13.209ZM12.5968 13.209C12.9557 13.532 13.3684 13.6935 13.8349 13.6935C14.3014 13.6935 14.6962 13.532 15.0191 13.209C15.378 12.8501 15.5574 12.4375 15.5574 11.9709C15.5574 11.5044 15.378 11.1097 15.0191 10.7867C14.6962 10.4278 14.3014 10.2484 13.8349 10.2484C13.3684 10.2484 12.9557 10.4278 12.5968 10.7867C12.2739 11.1097 12.1124 11.5044 12.1124 11.9709C12.1124 12.4375 12.2739 12.8501 12.5968 13.209ZM19.487 13.209C19.8458 13.532 20.2585 13.6935 20.725 13.6935C21.1915 13.6935 21.5863 13.532 21.9093 13.209C22.2681 12.8501 22.4475 12.4375 22.4475 11.9709C22.4475 11.5044 22.2681 11.1097 21.9093 10.7867C21.5863 10.4278 21.1915 10.2484 20.725 10.2484C20.2585 10.2484 19.8458 10.4278 19.487 10.7867C19.164 11.1097 19.0025 11.5044 19.0025 11.9709C19.0025 12.4375 19.164 12.8501 19.487 13.209Z" fill="black"/>
</svg>
