<svg width="16" height="16" viewBox="0 0 16 16" fill="none" xmlns="http://www.w3.org/2000/svg">
<path d="M5.375 16C4.10417 16 3.01042 15.5417 2.09375 14.625C1.19792 13.7292 0.75 12.6458 0.75 11.375C0.75 10.0833 1.20833 8.98958 2.125 8.09375L9.15625 1.03125C9.84375 0.34375 10.6771 0 11.6562 0C12.6562 0 13.5 0.354167 14.1875 1.0625C14.8958 1.75 15.25 2.59375 15.25 3.59375C15.25 4.57292 14.8958 5.40625 14.1875 6.09375L8.28125 12.0312C7.78125 12.5104 7.1875 12.75 6.5 12.75C5.8125 12.75 5.21875 12.5104 4.71875 12.0312C4.21875 11.5312 3.96875 10.9375 3.96875 10.25C3.96875 9.5625 4.21875 8.96875 4.71875 8.46875L9.75 3.4375C9.91667 3.27083 10.0833 3.27083 10.25 3.4375L10.7812 3.96875C10.9688 4.15625 10.9688 4.33333 10.7812 4.5L5.78125 9.53125C5.57292 9.71875 5.46875 9.95833 5.46875 10.25C5.46875 10.5208 5.57292 10.7604 5.78125 10.9688C5.98958 11.1562 6.22917 11.25 6.5 11.25C6.79167 11.25 7.03125 11.1562 7.21875 10.9688L13.1562 5.03125C13.5521 4.63542 13.75 4.15625 13.75 3.59375C13.75 3.01042 13.5417 2.52083 13.125 2.125C12.7292 1.70833 12.2396 1.5 11.6562 1.5C11.0938 1.5 10.6042 1.69792 10.1875 2.09375L3.15625 9.125C2.55208 9.75 2.25 10.5 2.25 11.375C2.25 12.2292 2.55208 12.9688 3.15625 13.5938C3.78125 14.1979 4.52083 14.5 5.375 14.5C6.25 14.5 7 14.1875 7.625 13.5625C9.625 11.5625 11.6562 9.52083 13.7188 7.4375C13.9062 7.27083 14.0833 7.27083 14.25 7.4375L14.7812 7.96875C14.9688 8.15625 14.9688 8.33333 14.7812 8.5C12.7604 10.5417 10.7292 12.5833 8.6875 14.625C7.77083 15.5417 6.66667 16 5.375 16Z" fill="#2E2E2E"/>
</svg>
