<svg width="13" height="13" viewBox="0 0 13 13" fill="none" xmlns="http://www.w3.org/2000/svg">
<path d="M6.30273 12.2109C6.13867 12.3568 5.98372 12.3568 5.83789 12.2109L0.123047 6.46875C-0.0410156 6.32292 -0.0410156 6.17708 0.123047 6.03125L5.83789 0.289062C5.98372 0.143229 6.13867 0.143229 6.30273 0.289062L6.84961 0.835938C6.9043 0.890625 6.93164 0.963542 6.93164 1.05469C6.93164 1.14583 6.9043 1.22786 6.84961 1.30078L2.61133 5.53906H11.9355C12.1543 5.53906 12.2637 5.64844 12.2637 5.86719V6.63281C12.2637 6.85156 12.1543 6.96094 11.9355 6.96094H2.61133L6.84961 11.1992C6.99544 11.3633 6.99544 11.5182 6.84961 11.6641L6.30273 12.2109Z" fill="#757575"/>
</svg>
