<svg viewBox="0 0 10 13" fill="none" xmlns="http://www.w3.org/2000/svg">
<path d="M0 5.796H1.656V0H5.652C6.996 0 8.04 0.336 8.784 1.008C9.516 1.668 9.882 2.592 9.882 3.78C9.882 4.956 9.516 5.886 8.784 6.57C8.04 7.254 6.996 7.596 5.652 7.596H3.582V8.658H7.11V10.062H3.582V12.852H1.656V10.062H0V8.658H1.656V7.596H0V5.796ZM5.4 5.796C6.324 5.796 6.978 5.622 7.362 5.274C7.734 4.938 7.92 4.446 7.92 3.798C7.92 3.174 7.734 2.682 7.362 2.322C6.978 1.974 6.324 1.8 5.4 1.8H3.582V5.796H5.4Z" fill="black"/>
</svg>
